<svg viewBox="0 0 800 400" xmlns="http://www.w3.org/2000/svg">
  <style>
    .layer { fill: #f0f0f0; stroke: #333; stroke-width: 2; }
    .neuron { fill: #6495ED; stroke: #333; stroke-width: 2; }
    .text { font-family: Arial, sans-serif; font-size: 14px; text-anchor: middle; }
    .arrow { fill: none; stroke: #666; stroke-width: 2; marker-end: url(#arrowhead); }
    .dropout { fill: #ff9999; stroke: #333; stroke-width: 2; }
  </style>
  
  <defs>
    <marker id="arrowhead" markerWidth="10" markerHeight="7" refX="0" refY="3.5" orient="auto">
      <polygon points="0 0, 10 3.5, 0 7" />
    </marker>
  </defs>

  <!-- Input Layer -->
  <rect x="50" y="50" width="100" height="300" rx="20" class="layer" />
  <text x="100" y="380" class="text">Input Layer</text>
  <circle cx="100" cy="100" r="15" class="neuron" />
  <circle cx="100" cy="150" r="15" class="neuron" />
  <circle cx="100" cy="200" r="15" class="neuron" />
  <circle cx="100" cy="250" r="15" class="neuron" />
  <text x="100" cy="300" class="text">...</text>

  <!-- Embedding Layer -->
  <rect x="200" y="50" width="100" height="300" rx="20" class="layer" />
  <text x="250" y="380" class="text">Embedding Layer</text>
  <circle cx="250" cy="100" r="15" class="neuron" />
  <circle cx="250" cy="150" r="15" class="neuron" />
  <circle cx="250" cy="200" r="15" class="neuron" />
  <circle cx="250" cy="250" r="15" class="neuron" />
  <text x="250" cy="300" class="text">...</text>

  <!-- Hidden Layer 1 -->
  <rect x="350" y="50" width="100" height="300" rx="20" class="layer" />
  <text x="400" y="380" class="text">Hidden Layer 1</text>
  <circle cx="400" cy="100" r="15" class="neuron" />
  <circle cx="400" cy="150" r="15" class="neuron" />
  <circle cx="400" cy="200" r="15" class="neuron" />
  <circle cx="400" cy="250" r="15" class="neuron" />
  <text x="400" y="300" class="text">ReLU</text>

  <!-- Dropout 1 -->
  <rect x="500" y="150" width="40" height="100" rx="10" class="dropout" />
  <text x="520" y="270" class="text">Dropout</text>

  <!-- Hidden Layer 2 -->
  <rect x="590" y="50" width="100" height="300" rx="20" class="layer" />
  <text x="640" y="380" class="text">Hidden Layer 2</text>
  <circle cx="640" cy="100" r="15" class="neuron" />
  <circle cx="640" cy="150" r="15" class="neuron" />
  <circle cx="640" cy="200" r="15" class="neuron" />
  <circle cx="640" cy="250" r="15" class="neuron" />
  <text x="640" y="300" class="text">ReLU</text>

  <!-- Output Layer -->
  <rect x="740" y="175" width="40" height="50" rx="10" class="layer" />
  <text x="760" y="380" class="text">Output</text>
  <circle cx="760" cy="200" r="15" class="neuron" />

  <!-- Connections -->
  <path d="M 150 200 C 175 200, 175 200, 200 200" class="arrow" />
  <path d="M 300 200 C 325 200, 325 200, 350 200" class="arrow" />
  <path d="M 450 200 C 475 200, 475 200, 500 200" class="arrow" />
  <path d="M 540 200 C 565 200, 565 200, 590 200" class="arrow" />
  <path d="M 690 200 C 715 200, 715 200, 740 200" class="arrow" />
</svg>